HIERARCHY
ROOT Pelvis
{
	OFFSET 0.000000 0.000000 0.000000
	CHANNELS 6 Xposition Yposition Zposition Zrotation Yrotation Xrotation 
	JOINT Left_hip
	{
		OFFSET 0.067986 -0.089946 -0.007639
		CHANNELS 3 Zrotation Yrotation Xrotation
		JOINT Left_knee
		{
			OFFSET 0.036308 -0.388288 -0.004016
			CHANNELS 3 Zrotation Yrotation Xrotation
			JOINT Left_ankle
			{
				OFFSET -0.012264 -0.413250 -0.042878
				CHANNELS 3 Zrotation Yrotation Xrotation
				JOINT Left_foot
				{
					OFFSET 0.024043 -0.058563 0.118570
					CHANNELS 3 Zrotation Yrotation Xrotation
					End Site
					{
						OFFSET 0.000000 0.000000 0.000000
					}
				}
			}
		}
	}
	JOINT Right_hip
	{
		OFFSET -0.065648 -0.089374 -0.003858
		CHANNELS 3 Zrotation Yrotation Xrotation
		JOINT Right_knee
		{
			OFFSET -0.042132 -0.395021 -0.006361
			CHANNELS 3 Zrotation Yrotation Xrotation
			JOINT Right_ankle
			{
				OFFSET 0.014805 -0.413264 -0.041054
				CHANNELS 3 Zrotation Yrotation Xrotation
				JOINT Right_foot
				{
					OFFSET -0.021758 -0.049013 0.121832
					CHANNELS 3 Zrotation Yrotation Xrotation
					End Site
					{
						OFFSET 0.000000 0.000000 0.000000
					}
				}
			}
		}
	}
	JOINT Spine1
	{
		OFFSET -0.002755 0.104406 -0.022277
		CHANNELS 3 Zrotation Yrotation Xrotation
		JOINT Spine2
		{
			OFFSET 0.004136 0.129393 -0.002186
			CHANNELS 3 Zrotation Yrotation Xrotation
			JOINT Spine3
			{
				OFFSET 0.001906 0.049304 0.025578
				CHANNELS 3 Zrotation Yrotation Xrotation
				JOINT Neck
				{
					OFFSET -0.004620 0.210958 -0.044063
					CHANNELS 3 Zrotation Yrotation Xrotation
					JOINT Head
					{
						OFFSET 0.003833 0.067393 0.052435
						CHANNELS 3 Zrotation Yrotation Xrotation
						End Site
						{
							OFFSET 0.000000 0.000000 0.000000
						}
					}
				}
				JOINT Left_collar
				{
					OFFSET 0.070771 0.116689 -0.037192
					CHANNELS 3 Zrotation Yrotation Xrotation
					JOINT Left_shoulder
					{
						OFFSET 0.080652 0.031596 -0.005617
						CHANNELS 3 Zrotation Yrotation Xrotation
						JOINT Left_elbow
						{
							OFFSET 0.262654 -0.015020 -0.027939
							CHANNELS 3 Zrotation Yrotation Xrotation
							JOINT Left_wrist
							{
								OFFSET 0.250438 0.010062 -0.000990
								CHANNELS 3 Zrotation Yrotation Xrotation
								JOINT Left_palm
								{
									OFFSET 0.081198 -0.010037 -0.013706
									CHANNELS 3 Zrotation Yrotation Xrotation
									End Site
									{
										OFFSET 0.000000 0.000000 0.000000
									}
								}
							}
						}
					}
				}
				JOINT Right_collar
				{
					OFFSET -0.072972 0.115556 -0.040762
					CHANNELS 3 Zrotation Yrotation Xrotation
					JOINT Right_shoulder
					{
						OFFSET -0.082917 0.031841 -0.006673
						CHANNELS 3 Zrotation Yrotation Xrotation
						JOINT Right_elbow
						{
							OFFSET -0.252882 -0.013790 -0.020410
							CHANNELS 3 Zrotation Yrotation Xrotation
							JOINT Right_wrist
							{
								OFFSET -0.255570 0.009163 -0.005138
								CHANNELS 3 Zrotation Yrotation Xrotation
								JOINT Right_palm
								{
									OFFSET -0.080804 -0.007282 -0.010415
									CHANNELS 3 Zrotation Yrotation Xrotation
									End Site
									{
										OFFSET 0.000000 0.000000 0.000000
									}
								}
							}
						}
					}
				}
			}
		}
	}
}
MOTION
Frames: 8
Frame Time: 0.100000
0.000000 0.000000 0.000000 175.194050 23.604333 -19.163709 6.942176 4.850454 9.033619 -5.140900 -18.678961 -1.815025 -5.768482 11.258056 -7.592289 2.573369 1.137313 0.863822 -6.623984 -6.916128 8.727714 5.502509 9.755218 1.339184 12.989429 -13.947800 -9.990599 -9.464585 9.792981 2.526901 1.663980 1.312441 9.746676 0.499949 -3.823447 1.014038 1.300121 -0.797632 2.637489 1.326672 2.748202 2.013191 2.176175 0.571206 -4.459719 -6.930928 -0.567192 -7.631692 0.625750 1.285361 -14.252354 2.397069 -6.154972 -9.828595 1.530967 -8.381696 20.577948 -6.592045 -1.807934 -12.402041 6.262295 -0.174068 -6.019249 1.333529 -6.100482 -9.821312 -4.430944 9.010524 -8.851315 0.921431 3.871888 16.036971 6.702195 4.287939 -2.734770 
0.000053 -0.000451 0.002369 175.238405 23.623085 -19.102965 6.988074 4.888337 9.210039 -5.109093 -18.734915 -1.937941 -5.737977 11.288533 -7.577724 2.495632 1.104564 0.881720 -6.617454 -6.940229 8.943259 5.486369 9.797902 1.168417 12.895410 -13.933914 -10.042082 -9.269362 9.708911 2.640965 1.647155 1.314895 9.635142 0.462774 -3.797713 0.849699 1.284057 -0.781331 2.580798 1.370180 2.689298 2.297173 2.177144 0.599929 -4.382626 -6.936861 -0.473319 -7.640186 0.736053 1.315180 -14.183204 2.294683 -6.213387 -9.641908 1.586805 -8.379516 20.663175 -6.633306 -1.810564 -12.481634 6.229735 -0.231848 -6.029985 1.221856 -6.103034 -9.841980 -4.289309 8.852909 -8.790436 0.818667 3.834238 16.059797 6.732341 4.303615 -2.784529 
0.000313 -0.000669 0.003786 175.244000 23.754531 -19.084857 6.962692 4.863206 9.095696 -5.131055 -18.762393 -1.628007 -5.692715 11.256868 -7.689158 2.428523 1.132382 0.861875 -6.615042 -6.971429 9.054059 5.498500 9.772208 1.128748 12.883923 -13.992212 -10.127583 -9.263938 9.733672 2.687034 1.636164 1.338202 9.649429 0.446367 -3.827536 0.766943 1.270121 -0.800838 2.579363 1.427939 2.653224 2.290625 2.204187 0.588189 -4.342382 -6.945840 -0.533381 -7.646510 0.819361 1.283037 -14.193875 2.239734 -6.207628 -9.548249 1.616458 -8.421951 20.755493 -6.645685 -1.817771 -12.493486 6.198435 -0.218900 -6.077816 1.088254 -6.150217 -9.899967 -4.325321 8.855462 -8.904727 0.673769 3.870309 16.049099 6.763813 4.318342 -2.783962 
0.000255 -0.000795 0.004748 175.268520 23.628381 -19.147869 7.002132 4.887075 9.300321 -5.092760 -18.784200 -1.681116 -5.671969 11.322898 -7.769722 2.430639 1.169969 0.896892 -6.610235 -6.946924 9.170544 5.529170 9.851075 1.167577 12.835204 -13.954805 -10.186790 -9.166021 9.718461 2.735206 1.640764 1.360681 9.592773 0.434065 -3.776001 0.887382 1.266514 -0.769877 2.571963 1.502686 2.550693 2.368676 2.207219 0.520908 -4.343020 -7.042463 -0.580108 -7.632089 0.793850 1.315637 -14.103723 2.261266 -6.348720 -9.555542 1.723662 -8.391212 20.705025 -6.729080 -1.848116 -12.603207 6.181891 -0.090412 -6.048548 0.896200 -6.100344 -10.006456 -4.364643 8.942989 -9.185138 0.452786 3.863586 15.875442 6.887706 4.337509 -2.900027 
-0.000141 -0.000845 0.005110 175.282737 23.585435 -19.114273 6.973468 4.896250 9.304490 -5.090835 -18.732541 -1.657364 -5.593823 11.270386 -7.797289 2.371287 1.261581 0.835389 -6.630409 -6.928504 9.136136 5.534152 9.812841 1.238024 12.778918 -13.877929 -10.218231 -9.081223 9.637973 2.783061 1.672654 1.329185 9.582317 0.382443 -3.744653 0.827230 1.227572 -0.765572 2.534598 1.590170 2.499631 2.438393 2.200923 0.575871 -4.250794 -7.270119 -0.539725 -7.582799 0.500491 1.235948 -13.950374 2.337406 -6.622618 -9.381405 1.625826 -8.366069 20.668253 -6.786472 -1.860111 -12.652607 6.242989 -0.096291 -6.022355 0.958357 -6.020889 -9.983735 -4.492615 9.253318 -9.302214 0.470517 3.863724 15.695276 6.930356 4.352831 -2.913832 
-0.000907 -0.000811 0.005152 175.287779 23.515908 -19.079890 6.946328 4.888255 9.342104 -5.107773 -18.633206 -1.708425 -5.482352 11.193831 -7.813283 2.322020 1.459381 0.733756 -6.661147 -6.891761 9.069703 5.535402 9.763486 1.328445 12.723374 -13.783930 -10.233662 -9.027540 9.578724 2.805228 1.696761 1.273150 9.541747 0.309782 -3.636184 0.838623 1.184312 -0.781023 2.479863 1.768932 2.274818 2.362154 2.239991 0.531739 -4.185217 -7.669627 -0.284370 -7.487043 -0.030994 1.122445 -13.691477 2.986336 -7.893129 -9.241188 1.416371 -8.198853 20.227661 -6.809095 -1.861728 -12.570770 6.411733 -0.171331 -5.962131 1.119622 -5.972629 -9.916759 -4.693070 9.657405 -9.514509 0.595772 3.738378 15.454524 6.973676 4.354095 -2.903411 
-0.001981 -0.000787 0.004875 175.320478 23.321700 -19.061072 6.885805 4.879898 9.339034 -5.155037 -18.381434 -1.603753 -5.283294 10.959390 -7.844594 2.343130 2.134510 0.437205 -6.693549 -6.747877 8.941629 5.529964 9.664523 1.514347 12.671857 -13.627750 -10.231766 -9.039723 9.508132 2.741362 1.689643 1.190034 9.445550 0.252209 -3.449342 1.034743 1.117165 -0.838382 2.388950 2.155216 2.116701 2.196690 2.136671 0.480781 -4.134270 -8.527349 0.275048 -7.281254 -0.856782 1.056836 -13.260542 4.802043 -11.325988 -8.769425 0.572374 -7.753303 20.067553 -7.072652 -1.969555 -12.770369 6.940113 -0.490547 -5.850245 1.676327 -6.029016 -9.536659 -5.982216 12.307400 -10.119178 0.974242 3.548832 14.544846 7.387366 4.435695 -3.016483 
-0.003033 -0.000549 0.004130 175.493939 22.788825 -18.906815 6.733905 4.962660 9.291279 -5.116845 -17.722747 -1.596339 -4.992571 10.126586 -7.606649 2.733658 4.155904 -0.790859 -6.709218 -6.291731 8.498010 5.451009 9.162530 1.915956 12.478474 -12.985723 -10.068373 -9.042144 8.811715 2.093460 1.576537 0.989859 9.380435 0.115285 -3.123014 1.243493 0.933938 -1.158343 2.251805 2.692510 2.012980 2.194198 1.817108 0.498379 -4.139465 -10.131422 2.264674 -6.640150 -3.892114 0.906321 -12.472834 9.630664 -20.250676 -9.233196 0.674378 -7.350345 18.483074 -7.836784 -2.170819 -13.036932 7.991914 -2.335892 -5.660984 6.115896 -6.105614 -6.690586 -10.616569 25.068675 -11.463753 0.566578 4.150064 9.263284 8.577943 4.735605 -3.097150 
